<svg width="144" height="17" viewBox="0 0 144 17" fill="none" xmlns="http://www.w3.org/2000/svg">
<path fill-rule="evenodd" clip-rule="evenodd" d="M41.4626 3.47856C41.9052 3.47856 42.2677 3.343 42.5499 3.07186C42.8321 2.80073 42.9732 2.44936 42.9732 2.01776C42.9732 1.59723 42.8321 1.2514 42.5499 0.980262C42.2677 0.709129 41.9052 0.573562 41.4626 0.573562C41.031 0.573562 40.6741 0.709129 40.3919 0.980262C40.1097 1.2514 39.9686 1.59723 39.9686 2.01776C39.9686 2.44936 40.1097 2.80073 40.3919 3.07186C40.6741 3.343 41.031 3.47856 41.4626 3.47856ZM35.7854 13.1232L39.0224 4.62396H36.4494L34.2748 11.0316L32.1002 4.62396H29.5272L32.7144 13.1232H35.7854ZM42.691 4.62396V13.1232H40.201V4.62396H42.691ZM48.0528 13.3888C48.6947 13.3888 49.2646 13.2366 49.7626 12.9323C50.2606 12.6279 50.6701 12.188 50.991 11.6126L51.3728 13.1232H53.4478V0.805962H50.9578V6.13456C50.6479 5.5591 50.244 5.1192 49.746 4.81486C49.248 4.51053 48.6836 4.35836 48.0528 4.35836C47.3113 4.35836 46.6473 4.5465 46.0608 4.92276C45.4743 5.29903 45.0178 5.83023 44.6913 6.51636C44.3648 7.2025 44.2016 7.98823 44.2016 8.87356C44.2016 9.7589 44.3648 10.5419 44.6913 11.2225C45.0178 11.9031 45.4743 12.4343 46.0608 12.8161C46.6473 13.1979 47.3113 13.3888 48.0528 13.3888ZM47.3224 10.5834C47.7318 11.0371 48.252 11.264 48.8828 11.264C49.5136 11.264 50.0337 11.0343 50.4432 10.5751C50.8526 10.1158 51.0574 9.54863 51.0574 8.87356C51.0574 8.1985 50.8526 7.63133 50.4432 7.17206C50.0337 6.7128 49.5136 6.48316 48.8828 6.48316C48.252 6.48316 47.7318 6.7128 47.3224 7.17206C46.9129 7.63133 46.7082 8.1985 46.7082 8.87356C46.7082 9.55969 46.9129 10.1296 47.3224 10.5834ZM59.8222 13.3888C60.7518 13.3888 61.6012 13.2172 62.3703 12.8742C63.1394 12.5311 63.6789 12.0718 63.9888 11.4964L62.4948 10.434C62.2845 10.7549 61.958 11.0205 61.5154 11.2308C61.0727 11.441 60.5858 11.5462 60.0546 11.5462C59.3574 11.5462 58.7626 11.3636 58.2701 10.9984C57.7776 10.6332 57.4927 10.1573 57.4152 9.57076H63.773C63.7951 9.4601 63.8062 9.21663 63.8062 8.84036C63.8062 7.95503 63.6264 7.17206 63.2667 6.49146C62.907 5.81086 62.3979 5.2852 61.7395 4.91446C61.081 4.54373 60.3091 4.35836 59.4238 4.35836C58.5385 4.35836 57.75 4.54373 57.0583 4.91446C56.3666 5.2852 55.8244 5.8081 55.4315 6.48316C55.0386 7.15823 54.8422 7.9329 54.8422 8.80716C54.8422 9.6925 55.058 10.4838 55.4896 11.181C55.9212 11.8782 56.5133 12.4204 57.2658 12.8078C58.0183 13.1951 58.8705 13.3888 59.8222 13.3888ZM57.4152 8.07676H61.2664C61.2 7.52343 60.998 7.07246 60.6605 6.72386C60.323 6.37526 59.8997 6.20096 59.3906 6.20096C58.8705 6.20096 58.4361 6.36973 58.0875 6.70726C57.7389 7.0448 57.5148 7.5013 57.4152 8.07676ZM69.7324 13.3888C70.6509 13.3888 71.4671 13.2006 72.1809 12.8244C72.8947 12.4481 73.4508 11.9169 73.8492 11.2308C74.2476 10.5446 74.4468 9.7589 74.4468 8.87356C74.4468 7.97716 74.2476 7.18866 73.8492 6.50806C73.4508 5.82746 72.8947 5.29903 72.1809 4.92276C71.4671 4.5465 70.6509 4.35836 69.7324 4.35836C68.8028 4.35836 67.9811 4.5465 67.2673 4.92276C66.5535 5.29903 65.9974 5.82746 65.599 6.50806C65.2006 7.18866 65.0014 7.97716 65.0014 8.87356C65.0014 9.76996 65.2006 10.5585 65.599 11.2391C65.9974 11.9197 66.5535 12.4481 67.2673 12.8244C67.9811 13.2006 68.8028 13.3888 69.7324 13.3888ZM68.1305 10.5917C68.5455 11.0399 69.0795 11.264 69.7324 11.264C70.3853 11.264 70.9193 11.0399 71.3343 10.5917C71.7493 10.1435 71.9568 9.57076 71.9568 8.87356C71.9568 8.17636 71.7493 7.60366 71.3343 7.15546C70.9193 6.70726 70.3853 6.48316 69.7324 6.48316C69.0795 6.48316 68.5455 6.70726 68.1305 7.15546C67.7155 7.60366 67.508 8.17636 67.508 8.87356C67.508 9.57076 67.7155 10.1435 68.1305 10.5917ZM79.709 13.422C80.5058 13.422 81.2168 13.2975 81.8421 13.0485C82.4674 12.7995 82.9543 12.4509 83.3029 12.0027C83.6515 11.5545 83.8258 11.0371 83.8258 10.4506C83.8258 9.6095 83.491 9.00913 82.8215 8.64946C82.1519 8.2898 81.2694 8.02696 80.1738 7.86096L79.8086 7.81116C79.211 7.72263 78.7738 7.6258 78.4972 7.52066C78.2205 7.41553 78.0822 7.22463 78.0822 6.94796C78.0822 6.68236 78.2039 6.4555 78.4474 6.26736C78.6908 6.07923 79.0007 5.98516 79.377 5.98516C79.8086 5.98516 80.1765 6.0903 80.4809 6.30056C80.7852 6.51083 80.965 6.78196 81.0204 7.11396L83.0954 6.61596C82.9515 5.92983 82.5393 5.3765 81.8587 4.95596C81.1781 4.53543 80.3564 4.32516 79.3936 4.32516C78.7074 4.32516 78.096 4.44136 77.5593 4.67376C77.0225 4.90616 76.5992 5.2354 76.2894 5.66146C75.9795 6.08753 75.8246 6.5717 75.8246 7.11396C75.8246 7.98823 76.14 8.59966 76.7708 8.94826C77.4016 9.29686 78.2371 9.53756 79.2774 9.67036C79.9635 9.76996 80.4947 9.8917 80.871 10.0356C81.2472 10.1794 81.4354 10.4063 81.4354 10.7162C81.4354 11.0039 81.2749 11.2418 80.954 11.43C80.633 11.6181 80.2291 11.7122 79.7422 11.7122C79.1667 11.7122 78.6825 11.5738 78.2897 11.2972C77.8968 11.0205 77.6782 10.6719 77.634 10.2514L75.4262 10.6498C75.559 11.4798 76.0182 12.1493 76.804 12.6584C77.5897 13.1674 78.558 13.422 79.709 13.422ZM89.7603 12.9406C89.2789 13.2394 88.756 13.3888 88.1916 13.3888C87.262 13.3888 86.5067 13.09 85.9257 12.4924C85.3447 11.8948 85.0542 11.0924 85.0542 10.0854V4.62396H87.5608V9.50436C87.5608 10.0245 87.6991 10.4478 87.9758 10.7743C88.2524 11.1007 88.6343 11.264 89.1212 11.264C89.6192 11.264 90.0397 11.0869 90.3828 10.7328C90.7258 10.3786 90.8974 9.93596 90.8974 9.40476V4.62396H93.3874V13.1232H91.2792L90.8974 11.6956C90.6207 12.2268 90.2417 12.6418 89.7603 12.9406ZM97.6038 16.9412V11.6126C97.9247 12.1991 98.3287 12.6418 98.8156 12.9406C99.3025 13.2394 99.8669 13.3888 100.509 13.3888C101.25 13.3888 101.911 13.2006 102.492 12.8244C103.073 12.4481 103.527 11.9169 103.854 11.2308C104.18 10.5446 104.343 9.7589 104.343 8.87356C104.343 7.98823 104.18 7.2025 103.854 6.51636C103.527 5.83023 103.071 5.29903 102.484 4.92276C101.898 4.5465 101.234 4.35836 100.492 4.35836C99.8503 4.35836 99.2804 4.51053 98.7824 4.81486C98.2844 5.1192 97.8804 5.5591 97.5706 6.13456L97.1888 4.62396H95.0972V16.9412H97.6038ZM98.1101 10.5668C98.5251 11.0205 99.048 11.2474 99.6788 11.2474C100.31 11.2474 100.83 11.0205 101.239 10.5668C101.649 10.113 101.853 9.54863 101.853 8.87356C101.853 8.18743 101.646 7.6175 101.231 7.16376C100.816 6.71003 100.299 6.48316 99.6788 6.48316C99.048 6.48316 98.5251 6.7128 98.1101 7.17206C97.6951 7.63133 97.4876 8.1985 97.4876 8.87356C97.4876 9.54863 97.6951 10.113 98.1101 10.5668ZM108.244 16.9412V11.6126C108.565 12.1991 108.969 12.6418 109.456 12.9406C109.943 13.2394 110.508 13.3888 111.149 13.3888C111.891 13.3888 112.552 13.2006 113.133 12.8244C113.714 12.4481 114.168 11.9169 114.494 11.2308C114.821 10.5446 114.984 9.7589 114.984 8.87356C114.984 7.98823 114.821 7.2025 114.494 6.51636C114.168 5.83023 113.711 5.29903 113.125 4.92276C112.538 4.5465 111.874 4.35836 111.133 4.35836C110.491 4.35836 109.921 4.51053 109.423 4.81486C108.925 5.1192 108.521 5.5591 108.211 6.13456L107.829 4.62396H105.738V16.9412H108.244ZM108.751 10.5668C109.166 11.0205 109.689 11.2474 110.319 11.2474C110.95 11.2474 111.47 11.0205 111.88 10.5668C112.289 10.113 112.494 9.54863 112.494 8.87356C112.494 8.18743 112.286 7.6175 111.871 7.16376C111.456 6.71003 110.939 6.48316 110.319 6.48316C109.689 6.48316 109.166 6.7128 108.751 7.17206C108.336 7.63133 108.128 8.1985 108.128 8.87356C108.128 9.54863 108.336 10.113 108.751 10.5668ZM120.811 13.3888C121.729 13.3888 122.545 13.2006 123.259 12.8244C123.973 12.4481 124.529 11.9169 124.927 11.2308C125.326 10.5446 125.525 9.7589 125.525 8.87356C125.525 7.97716 125.326 7.18866 124.927 6.50806C124.529 5.82746 123.973 5.29903 123.259 4.92276C122.545 4.5465 121.729 4.35836 120.811 4.35836C119.881 4.35836 119.059 4.5465 118.345 4.92276C117.632 5.29903 117.076 5.82746 116.677 6.50806C116.279 7.18866 116.08 7.97716 116.08 8.87356C116.08 9.76996 116.279 10.5585 116.677 11.2391C117.076 11.9197 117.632 12.4481 118.345 12.8244C119.059 13.2006 119.881 13.3888 120.811 13.3888ZM119.209 10.5917C119.624 11.0399 120.158 11.264 120.811 11.264C121.464 11.264 121.997 11.0399 122.412 10.5917C122.827 10.1435 123.035 9.57076 123.035 8.87356C123.035 8.17636 122.827 7.60366 122.412 7.15546C121.997 6.70726 121.464 6.48316 120.811 6.48316C120.158 6.48316 119.624 6.70726 119.209 7.15546C118.794 7.60366 118.586 8.17636 118.586 8.87356C118.586 9.57076 118.794 10.1435 119.209 10.5917ZM129.426 13.1232V8.47516C129.426 7.8333 129.573 7.30486 129.866 6.88986C130.159 6.47486 130.533 6.26736 130.986 6.26736C131.374 6.26736 131.703 6.41676 131.974 6.71556C132.245 7.01436 132.397 7.39616 132.431 7.86096L134.539 7.27996C134.45 6.4057 134.157 5.7002 133.659 5.16346C133.161 4.62673 132.53 4.35836 131.767 4.35836C131.213 4.35836 130.721 4.49946 130.289 4.78166C129.858 5.06386 129.526 5.46503 129.293 5.98516L128.911 4.62396H126.919V13.1232H129.426ZM143.27 11.6458C142.595 12.8078 141.55 13.3888 140.133 13.3888C139.082 13.3888 138.271 13.1121 137.701 12.5588C137.131 12.0054 136.841 11.2418 136.83 10.268V6.51636H135.219V4.62396H136.83V2.28336L139.336 1.73556L139.32 4.62396H142.772V6.51636H139.32L139.336 9.88616C139.336 10.3399 139.461 10.7023 139.71 10.9735C139.959 11.2446 140.271 11.3802 140.648 11.3802C141.422 11.3802 142.003 10.9762 142.391 10.1684L143.27 11.6458Z" fill="white"/>
<path fill-rule="evenodd" clip-rule="evenodd" d="M14.2018 14.6312H2.74873C1.23051 14.6312 0 13.3814 0 11.8405V3.00344C0 1.46207 1.23051 0.212788 2.74873 0.212788H14.2018C15.7195 0.212788 16.9505 1.46207 16.9505 3.00344V11.8405C16.9505 13.3814 15.7195 14.6312 14.2018 14.6312ZM4.58863 8.9969C4.32758 8.71722 3.89263 8.70534 3.61716 8.97038C3.34168 9.23541 3.32998 9.67698 3.59103 9.95666C4.6346 11.0747 6.4728 11.7484 8.47542 11.7484C10.4761 11.7484 12.3128 11.0755 13.357 9.95903C13.6184 9.67962 13.6071 9.23803 13.3319 8.97272C13.0567 8.7074 12.6217 8.71884 12.3604 8.99825C11.5985 9.8129 10.124 10.353 8.47542 10.353C6.82523 10.353 5.3497 9.81228 4.58863 8.9969Z" fill="#8614F8"/>
<path fill-rule="evenodd" clip-rule="evenodd" d="M21.8026 11.6765L18.6792 10.6379C18.1702 10.4682 17.8257 9.98631 17.8257 9.44213V5.36778C17.8257 4.83057 18.161 4.35291 18.6608 4.17803L21.7843 3.08456C22.5892 2.8027 23.4276 3.41013 23.4276 4.27384V10.4812C23.4276 11.337 22.6039 11.943 21.8026 11.6765" fill="#8614F8"/>
</svg>
