<svg width="167" height="54" viewBox="0 0 167 54" fill="none" xmlns="http://www.w3.org/2000/svg">
<path fill-rule="evenodd" clip-rule="evenodd" d="M11.0286 30.9377C11.435 31.0772 11.8587 31.2287 12.3 31.3914C13.8785 31.9733 15.1031 32.8173 15.9737 33.9222C16.8439 35.0276 17.2792 36.4066 17.2792 38.0586C17.2792 39.1759 17.0524 40.1767 16.5987 41.0608C16.145 41.9453 15.5166 42.7015 14.7135 43.3299C13.9107 43.9583 12.9505 44.424 11.8339 44.7258C10.7166 45.028 9.49504 45.1795 8.16849 45.1795C7.02792 45.1795 6.05044 45.1101 5.23607 44.9703C4.42132 44.8308 3.7468 44.6625 3.21176 44.4641C2.67596 44.2669 2.27478 44.0862 2.00744 43.9231C1.73936 43.7604 1.57101 43.6786 1.50127 43.6786C1.43153 43.6786 1.27968 43.8185 1.04721 44.0978C0.814375 44.3771 0.605157 44.6448 0.419186 44.9006H0.104984L0 37.954H0.349071C0.558664 38.5824 0.825623 39.1932 1.1522 39.7867C1.47765 40.3802 1.83272 40.9385 2.21666 41.462C2.60098 41.9858 3.00779 42.4454 3.4386 42.841C3.86903 43.2369 4.28184 43.5391 4.67778 43.7487C5.07335 43.9583 5.59676 44.1675 6.24841 44.3771C6.90006 44.5863 7.52809 44.6913 8.13363 44.6913C9.85536 44.6913 11.2516 44.22 12.3225 43.2774C13.3926 42.3348 13.9284 41.0608 13.9284 39.4549C13.9284 38.804 13.8234 38.2333 13.6142 37.7444C13.4046 37.2559 13.1196 36.8314 12.7589 36.4703C12.3978 36.11 11.9734 35.8018 11.4845 35.5454C10.9959 35.2893 10.4725 35.0564 9.91385 34.8472C9.35519 34.6376 8.86664 34.4629 8.44783 34.3234C8.02864 34.1839 7.6387 34.0505 7.27838 33.9222C6.91731 33.7944 6.54499 33.6662 6.16143 33.5383C5.77749 33.4104 5.31743 33.2417 4.78239 33.0321C4.17723 32.7997 3.5957 32.4795 3.03703 32.0719C2.47874 31.6651 1.98982 31.1878 1.57101 30.6407C1.1522 30.0945 0.814375 29.4889 0.558664 28.8256C0.302204 28.1624 0.174723 27.459 0.174723 26.7136C0.174723 25.4572 0.403438 24.3751 0.863117 23.4673C1.32167 22.5596 1.93845 21.8041 2.71308 21.1982C3.48771 20.5934 4.3812 20.1457 5.39317 19.8544C6.40552 19.5638 7.47035 19.418 8.58768 19.418C9.63489 19.418 10.5303 19.5053 11.2753 19.6801C12.0199 19.8544 12.6307 20.0464 13.1076 20.256C13.5845 20.4652 13.946 20.6572 14.1901 20.8319C14.4342 21.0066 14.568 21.0936 14.5913 21.0936C14.6614 21.0936 14.8065 20.9541 15.0277 20.6748C15.2485 20.3954 15.4521 20.1165 15.6385 19.8372H16.0228V26.2948H15.6385C15.3595 25.5269 14.9981 24.765 14.5568 24.0088C14.1143 23.2525 13.6022 22.5772 13.0206 21.9837C12.4387 21.3902 11.7754 20.9076 11.0308 20.5353C10.2858 20.1634 9.46017 19.9766 8.55244 19.9766C7.83067 19.9766 7.15015 20.0812 6.5105 20.2908C5.8701 20.5001 5.31143 20.8143 4.83488 21.2331C4.35758 21.6519 3.98489 22.1704 3.71755 22.7868C3.44984 23.4036 3.31637 24.1077 3.31637 24.8989C3.31637 26.1324 3.68756 27.1212 4.43069 27.8658C5.17345 28.6108 6.13706 29.2043 7.32113 29.646C7.78455 29.8327 8.21986 29.9951 8.62592 30.1346C9.03236 30.2744 9.4328 30.4087 9.82761 30.5361C10.2221 30.6644 10.6221 30.7978 11.0286 30.9377ZM50.5808 43.712C50.79 43.8751 50.9295 43.9681 50.9996 43.9913C51.3018 44.1083 51.715 44.2242 52.2388 44.3404C52.7622 44.457 53.3501 44.5384 54.0017 44.5849V44.9339H46.1474C46.0545 44.8874 45.9495 44.8237 45.8332 44.742C45.7166 44.6606 45.5888 44.5384 45.4493 44.3753C43.96 42.6535 42.5461 41.0188 41.208 39.4706C39.8694 37.9233 38.4791 36.3586 37.0367 34.7756C36.4312 34.1011 36.0184 33.6823 35.7975 33.5188C35.5759 33.3565 35.384 33.2747 35.2216 33.2747C35.0349 33.2747 34.9127 33.3156 34.8546 33.397C34.7964 33.4787 34.7327 33.6122 34.663 33.7981V37.254C34.663 38.3248 34.6742 39.2438 34.6975 40.0121C34.7207 40.687 34.7676 41.3154 34.8377 41.8969C34.907 42.4788 35.0581 42.9212 35.291 43.2234C35.4537 43.4563 35.6753 43.6543 35.9546 43.8166C36.2336 43.9801 36.5358 44.1136 36.862 44.2182C37.1878 44.3231 37.508 44.4049 37.8218 44.4626C38.1361 44.5207 38.4094 44.5616 38.6422 44.5849V44.9339H27.4371V44.5849C28.0186 44.4919 28.5769 44.3524 29.1127 44.166C29.6477 43.9801 30.0553 43.724 30.3346 43.3978C30.4505 43.2583 30.5438 43.0487 30.6136 42.7694C30.6833 42.4904 30.7358 42.171 30.7707 41.8095C30.8059 41.4492 30.8284 41.0649 30.8404 40.6573C30.852 40.2505 30.858 39.8606 30.858 39.4883C30.858 39.1624 30.8633 38.72 30.8753 38.1617C30.8869 37.6034 30.8929 36.9986 30.8929 36.3466V34.2871V32.2624V25.4553C30.8929 24.5712 30.8633 23.7568 30.8059 23.0118C30.7471 22.2675 30.59 21.7325 30.3346 21.4063C30.0084 21.0107 29.6129 20.7202 29.1476 20.5338C28.6819 20.3475 28.1468 20.2196 27.5421 20.1495V19.8004H38.3633V20.1495C37.9208 20.1964 37.4904 20.2601 37.0716 20.3415C36.6524 20.4236 36.2801 20.5975 35.9546 20.8649C35.6284 21.133 35.3547 21.5342 35.1343 22.0692C34.9127 22.605 34.7908 23.3612 34.7676 24.3383C34.7443 24.8741 34.7267 25.3743 34.7151 25.8396C34.7031 26.3053 34.6975 26.8403 34.6975 27.4451V29.6442V32.8559C35.1166 32.5998 35.6809 32.1638 36.3907 31.547C37.1005 30.9306 37.8451 30.2377 38.625 29.4698C39.4041 28.7019 40.1784 27.9108 40.9462 27.096C41.7141 26.282 42.3774 25.5723 42.9361 24.9667C43.3316 24.5018 43.6863 24.0241 44.0005 23.5356C44.3147 23.047 44.4718 22.605 44.4718 22.209C44.4718 21.5342 44.239 21.0456 43.7741 20.743C43.308 20.4404 42.773 20.2428 42.1678 20.1495V19.8004H51.523V20.1495C50.3363 20.2665 49.1372 20.7666 47.928 21.6504C46.7174 22.5352 45.4842 23.5592 44.2274 24.7223C43.7388 25.1647 43.2383 25.642 42.7268 26.1538C42.2143 26.6656 41.7081 27.1778 41.208 27.6892C40.7074 28.2018 40.2185 28.6963 39.7419 29.1732C39.2646 29.6505 38.8282 30.0982 38.4326 30.517C38.6186 30.7502 39.0494 31.256 39.7247 32.0355C40.3992 32.8154 41.202 33.7284 42.1333 34.7756C43.0635 35.8232 44.0583 36.9398 45.1175 38.1269C46.1763 39.3135 47.1947 40.4541 48.1721 41.5475C48.4042 41.8272 48.6723 42.1065 48.9753 42.3858C49.2771 42.6648 49.5684 42.9152 49.8478 43.1361C50.1271 43.3577 50.3712 43.5493 50.5808 43.712ZM68.872 43.2928C68.6856 43.0371 68.581 42.595 68.5578 41.9666C68.5345 41.3379 68.5229 40.687 68.5229 40.0117V32.1225V30.1327V28.3176C68.5229 27.7364 68.5285 27.1602 68.5405 26.5895C68.5518 26.02 68.5578 25.4437 68.5578 24.8618C68.581 24.3267 68.5986 23.7564 68.6103 23.1513C68.6219 22.5465 68.7325 22.0463 68.9421 21.65C69.2439 21.0917 69.6751 20.7198 70.2338 20.5334C70.7921 20.3475 71.3159 20.2192 71.8044 20.1491V19.8004H61.3668V20.1491C61.9719 20.2192 62.513 20.3411 62.9903 20.5158C63.4668 20.6905 63.8684 20.9759 64.1946 21.3711C64.3341 21.5342 64.439 21.761 64.5088 22.0519C64.5785 22.3429 64.6306 22.6687 64.6659 23.029C64.7007 23.3901 64.7184 23.7797 64.7184 24.1985V25.4553V32.262V34.2867C64.7184 34.9848 64.712 35.6657 64.7007 36.329C64.6888 36.9919 64.6771 37.6031 64.6659 38.1613C64.6539 38.72 64.6483 39.1621 64.6483 39.4883C64.6483 39.8606 64.6426 40.2385 64.6306 40.6225C64.6186 41.0064 64.5961 41.3731 64.5613 41.7222C64.526 42.0712 64.4792 42.3738 64.4214 42.6295C64.3633 42.886 64.2759 43.0832 64.1597 43.2231C63.8106 43.619 63.3854 43.9212 62.8857 44.1304C62.3847 44.34 61.8437 44.4915 61.2621 44.5845V44.9336H71.8393V44.5845C71.3503 44.538 70.8033 44.4098 70.1985 44.2005C69.5934 43.9909 69.1513 43.6891 68.872 43.2928ZM101.44 20.1495V19.8004H110.098V20.1495C109.236 20.2661 108.544 20.4869 108.02 20.8124C107.497 21.1386 107.095 21.6388 106.816 22.3137C106.653 22.6627 106.548 23.3084 106.502 24.251C106.455 25.1936 106.408 26.2003 106.362 27.2704C106.315 28.2715 106.275 29.4522 106.24 30.8136C106.206 32.175 106.188 33.6354 106.188 35.1944V37.4287C106.188 38.2431 106.193 39.0751 106.206 39.9243C106.216 40.7739 106.222 41.6176 106.222 42.4552V44.7243C106.222 44.8177 106.193 44.8934 106.135 44.9512C106.077 45.0089 105.99 45.0385 105.874 45.0385C105.687 45.0385 105.478 44.9223 105.245 44.6895C103.267 42.4091 101.463 40.3143 99.8346 38.4058C98.2058 36.4981 96.6521 34.677 95.1748 32.9429C93.6964 31.2095 92.2476 29.5167 90.8284 27.8639C89.4085 26.2119 87.908 24.5014 86.3254 22.7325V37.4632C86.3254 38.6503 86.3543 39.7211 86.4128 40.675C86.4705 41.6296 86.6163 42.339 86.8492 42.8046C87.1049 43.3397 87.5061 43.7416 88.0531 44.0086C88.6002 44.2763 89.3508 44.4683 90.305 44.5849V44.9336H81.7177V44.5849C82.276 44.5147 82.8347 44.3696 83.3933 44.1484C83.952 43.9276 84.3937 43.5609 84.7195 43.0487C85.0453 42.5598 85.2549 41.8388 85.3479 40.8842C85.4409 39.9303 85.5106 38.7897 85.5575 37.4632C85.6044 36.4629 85.6385 35.2818 85.6621 33.9204C85.6854 32.559 85.6974 31.0989 85.6974 29.5395V27.8639V26.5726V25.2806C85.6974 24.8156 85.6854 24.2454 85.6621 23.5705C85.5924 22.8956 85.4293 22.3429 85.1736 21.9121C84.9175 21.4817 84.6149 21.1442 84.2662 20.9001C83.9171 20.6553 83.5384 20.4809 83.1313 20.3763C82.7241 20.2717 82.3341 20.1964 81.9618 20.1495V19.8004H89.0482L105.594 39.1388V27.2704C105.594 26.3398 105.582 25.4497 105.56 24.6001C105.536 23.7508 105.432 23.0815 105.245 22.5926C105.013 21.9417 104.6 21.4119 104.007 21.0047C103.413 20.5975 102.557 20.3122 101.44 20.1495Z" fill="white"/>
<path fill-rule="evenodd" clip-rule="evenodd" d="M163.23 44.6998C163.23 44.6998 163.991 43.789 165.575 44.5112C167.158 45.2333 166.657 46.8729 166.491 47.2426C166.489 47.2456 166.484 47.2441 166.483 47.2467C166.362 47.5602 166.179 47.9048 165.908 48.2876L165.908 48.288C165.904 48.2946 165.9 48.301 165.895 48.3073C165.89 48.315 165.884 48.3227 165.879 48.3307C165.878 48.3333 165.876 48.3363 165.873 48.3393C165.151 49.3468 164.407 50.13 163.636 50.7648L163.638 50.7723C163.638 50.7723 160.158 53.5743 155.429 53.8948C155.316 53.9026 155.202 53.9125 155.086 53.9226L155.086 53.9226L155.086 53.9226C154.955 53.9341 154.821 53.9457 154.686 53.9545C154.658 53.9559 154.631 53.9577 154.603 53.9596C154.591 53.9604 154.578 53.9613 154.566 53.9621C154.549 53.9631 154.533 53.9641 154.516 53.965C154.092 53.9886 153.647 54.0017 153.176 53.9998H153.176C152.875 53.9983 152.563 53.9889 152.245 53.9751C147.767 53.8202 144.098 52.5878 141.508 51.388C140.38 50.8762 139.223 50.2579 138.062 49.5148L138.025 49.4919L137.991 49.4705C137.992 49.4705 137.992 49.4705 137.993 49.4709C133.939 46.8575 129.849 42.7148 126.811 36.2358L122.194 26.9987H122.194C122.176 26.9631 121.901 26.4119 117.604 17.8175C117.604 17.8175 109.733 0.408936 98.1213 0.408936C98.1213 0.408936 91.135 0.176847 89.0665 7.72706C89.0717 7.73831 89.0755 7.74581 89.0755 7.74581C89.0755 7.74581 88.9075 8.56918 88.3421 9.13272C88.3421 9.13309 88.3447 9.13534 88.3447 9.13534C88.3447 9.13534 87.6792 10.1094 86.0456 9.54516C84.4112 8.98124 84.7498 7.31087 84.8787 6.92956C84.8808 6.92352 84.887 6.92122 84.8931 6.91892C84.8969 6.9175 84.9006 6.91609 84.9035 6.91381C84.9987 6.58236 85.1509 6.21454 85.3965 5.79573C85.4069 5.77806 85.4174 5.76233 85.4279 5.74665L85.4279 5.74663C85.4352 5.7357 85.4425 5.72479 85.4498 5.71325L85.4475 5.71175C85.452 5.70443 85.4569 5.6975 85.4618 5.69056C85.4666 5.68363 85.4715 5.67669 85.476 5.66938L85.4784 5.66607C85.4797 5.66421 85.481 5.66241 85.4824 5.66075C85.4845 5.65762 85.4867 5.65467 85.4891 5.65165L85.4891 5.65165L85.4891 5.65164L85.4921 5.64763C85.5664 5.53515 85.6417 5.43504 85.7182 5.3518C86.3669 4.49543 87.032 3.80141 87.7197 3.23525L87.7178 3.22775C87.7178 3.22775 91.1976 0.425808 95.9268 0.104858C96.0379 0.0972577 96.1501 0.0875093 96.2639 0.0776285C96.3971 0.066061 96.5324 0.0543121 96.6703 0.0456169C96.6944 0.0441833 96.718 0.0425468 96.7417 0.0409085L96.7417 0.0409078L96.7417 0.0409073C96.7737 0.0386895 96.8058 0.0364685 96.839 0.0347436C97.2638 0.0111222 97.7093 -0.0020008 98.1794 0.000248857H98.1802C98.4805 0.00137368 98.7925 0.0107472 99.1108 0.0246201C103.589 0.179846 107.258 1.41228 109.847 2.61172C110.975 3.12352 112.133 3.74217 113.293 4.48531L113.323 4.50383L113.365 4.52955C113.364 4.52955 113.363 4.52955 113.363 4.52918C117.417 7.14215 121.507 11.2849 124.545 17.7639L129.162 27.0013H129.162C129.171 27.0197 129.25 27.1783 129.933 28.5433L133.752 36.1826C133.752 36.1826 141.623 53.5911 153.234 53.5911C153.234 53.5911 160.384 53.8337 162.361 46.0184L162.364 46.0207C162.364 46.0207 162.612 45.2127 163.233 44.7028L163.23 44.6998ZM152.067 9.11215H149.662C149.391 9.11215 149.171 8.89281 149.171 8.62173V5.86703C149.171 5.59632 149.391 5.3766 149.662 5.3766H152.067C152.338 5.3766 152.558 5.15689 152.558 4.88618V2.48055C152.558 2.20984 152.777 1.9905 153.048 1.9905H155.803C156.074 1.9905 156.294 2.20984 156.294 2.48055V4.88618C156.294 5.15689 156.513 5.3766 156.784 5.3766H159.189C159.46 5.3766 159.68 5.59632 159.68 5.86703V8.62173C159.68 8.89281 159.46 9.11215 159.189 9.11215H156.784C156.513 9.11215 156.294 9.3315 156.294 9.60258V12.0082C156.294 12.2789 156.074 12.4983 155.803 12.4983H153.048C152.777 12.4983 152.558 12.2789 152.558 12.0082V9.60258C152.558 9.3315 152.338 9.11215 152.067 9.11215ZM124.64 39.8861L119.092 47.313C117.355 48.8214 115.113 50.359 112.869 50.7411V51.2514H124.865V50.7913C124.865 50.7913 117.968 50.1127 121.419 45.1379L121.849 44.5628C122.146 44.2227 122.31 44.0169 122.31 44.0169C122.147 44.1991 121.997 44.3768 121.858 44.5496L125.09 40.2228C125.183 40.0983 125.158 39.9225 125.033 39.8295C124.909 39.7361 124.733 39.762 124.64 39.8861ZM134.127 28.2475C134.071 28.3213 133.987 28.3603 133.901 28.3603C133.842 28.3603 133.784 28.342 133.733 28.3045C133.609 28.2115 133.583 28.0353 133.676 27.9108L140.33 19.0029C141.785 15.2291 136.154 14.6761 136.154 14.6761V14.2164H148.15V14.7267C145.54 15.171 142.932 17.1788 141.12 18.8863L134.127 28.2475Z" fill="white"/>
</svg>
